<svg width="178" height="178" viewBox="0 0 178 178" fill="none" xmlns="http://www.w3.org/2000/svg">
<rect width="178" height="178" fill="#FF0000"/>
<mask id="mask0_1_8" style="mask-type:alpha" maskUnits="userSpaceOnUse" x="5" y="5" width="168" height="168">
<rect x="5" y="5" width="168" height="168" fill="#D9D9D9"/>
</mask>
<g mask="url(#mask0_1_8)">
<path d="M61 117H145V33H131V82L113.5 71.5L96 82V33H61V117ZM61 131C57.15 131 53.8542 129.629 51.1125 126.888C48.3708 124.146 47 120.85 47 117V33C47 29.15 48.3708 25.8542 51.1125 23.1125C53.8542 20.3708 57.15 19 61 19H145C148.85 19 152.146 20.3708 154.888 23.1125C157.629 25.8542 159 29.15 159 33V117C159 120.85 157.629 124.146 154.888 126.888C152.146 129.629 148.85 131 145 131H61ZM33 159C29.15 159 25.8542 157.629 23.1125 154.888C20.3708 152.146 19 148.85 19 145V47H33V145H131V159H33Z" fill="white"/>
</g>
</svg>
